<?xml version="1.0" encoding="UTF-8"?>
<svg id="Layer_1" data-name="Layer 1" xmlns="http://www.w3.org/2000/svg" viewBox="0 0 1080 1080">
  <defs>
    <style>
      .cls-1 {
        fill: #3c95f7;
      }

      .cls-2 {
        fill: #fff;
      }

      .cls-3 {
        fill: #4f321f;
      }

      .cls-4 {
        fill: #fe5a41;
      }

      .cls-5 {
        fill: #835734;
      }

      .cls-6 {
        fill: #ff6c6c;
      }

      .cls-7 {
        fill: #95e046;
      }
    </style>
  </defs>
  <path class="cls-2" d="M536.74,931.71c-32.93,0-65.23-3.51-96.03-10.42-45.79-10.28-94.19-29.58-139.98-55.82-44.59-25.55-86.89-57.75-122.32-93.12-37.64-37.57-66.68-77.34-86.31-118.19-22.09-45.98-31.08-91.08-26.72-134.04,5.72-56.3,34.32-107.19,85.01-151.25,38.21-33.21,89.34-62.68,151.96-87.61,107.2-42.66,215.42-58.83,227.4-60.54,35.02-4.98,69.51-9.44,106.34-9.44,76.1,0,142.03,20.24,201.55,61.88,5.05,3.53,50.53,35.94,93.6,86.54,24.99,29.36,44.77,59.58,58.78,89.83,18.02,38.89,26.62,78.04,25.56,116.34-2.51,90.44-59.41,183.67-156.12,255.79-93.76,69.93-211.39,110.03-322.72,110.03h-.02Z"/>
  <path class="cls-5" d="M102.04,523.85c-15.26,150.22,172.73,322.43,346.74,361.5,241.11,54.13,524.75-131.81,529.99-320.47,3.95-142.31-151.4-253.93-162.23-261.51-100.33-70.18-198.83-57.91-281.59-46.15-27.41,3.9-412.19,62.67-432.9,266.63Z"/>
  <path class="cls-3" d="M102.04,523.85c-15.26,150.22,172.73,322.43,346.74,361.5,241.11,54.13,524.75-131.81,529.99-320.47,3.95-142.31-151.4-253.93-162.23-261.51-100.33-70.18-198.83-57.91-281.59-46.15-27.41,3.9-412.19,62.67-432.9,266.63Z"/>
  <path class="cls-4" d="M319.08,768.06c-3.27.63-6.17.37-8.68-.8-2.51-1.17-4.69-2.86-6.54-5.08-1.85-2.22-3.41-4.86-4.69-7.92-1.28-3.06-2.37-6.08-3.27-9.07-3.29-14.79-6.08-29.44-7.58-44.2-1.52-15.02-1.81-30.34-1.75-45.77.06-.55.09-1.29.1-2.24,0-.94.07-1.97.19-3.06-2.1,1.06-4.18,2.02-6.23,2.89-2.06.86-4.07,1.32-6.03,1.36-1.97.05-3.85-.5-5.66-1.62-1.8-1.13-3.55-3.1-5.08-5.88-1.45-2.63-2.7-5.51-3.79-8.51-1.09-2.99-1.73-6.11-2.1-9.14-.17-1.44-.29-2.96-.23-4.47.05-1.5.45-2.93,1.01-4.21.72-1.64,1.69-3.2,2.99-4.44,1.3-1.24,2.67-2.48,4.11-3.74.6-.48,1.88-1.23,3.82-2.26,1.94-1.03,3.98-2.1,6.11-3.21,2.13-1.11,4.22-2.14,6.24-3.1,2.02-.95,3.42-1.6,4.18-1.95,5.48-2.31,11.44-4.47,17.86-6.46,6.42-2,13.03-3.63,19.82-4.92,6.78-1.28,13.71-2.04,20.74-2.28,7.03-.24,13.9.26,20.58,1.47,6.68,1.22,13.08,3.19,19.18,5.9,6.1,2.71,11.66,6.51,16.67,11.26,5.96,5.64,10.09,11.62,12.32,17.95,2.23,6.33,2.88,12.57,2.02,18.75-.87,6.18-3.04,12.12-6.49,17.85-3.45,5.74-7.96,10.83-13.51,15.31-5.55,4.48-11.78,8.08-18.71,10.82,3.34,2.97,6.79,5.43,10.34,7.4,3.55,1.96,7.04,3.74,10.47,5.33,3.43,1.59,6.82,3.05,10.15,4.39,3.33,1.34,6.45,2.86,9.36,4.56,3.3,1.93,4.98,4.38,5.06,7.34.08,2.96-.44,6.19-1.58,9.63-1.32,3.98-3.07,7.9-5.15,11.72-2.09,3.82-4.55,7.54-7.41,10.46-2.57,2.62-5.75,4.17-8.93,4.65-3.18.47-6.75.13-10.69-.99-4.31-1.23-8.7-3.12-13.11-5.7-4.42-2.58-8.74-5.54-12.95-8.87-4.22-3.34-8.27-6.93-12.14-10.78-3.87-3.85-7.37-7.79-10.48-11.81.65,2.45,1.29,5.07,1.9,7.86.62,2.79,1.19,5.45,1.72,7.98.53,2.53.99,4.8,1.4,6.82.41,2.01.66,3.48.76,4.4.41,3.81.05,7.39-1.08,10.74-1.13,3.35-3.38,6.12-6.73,8.33-5.93,3.64-12.1,6.09-18.53,7.32ZM328.23,646.38c.27,2.97.53,5.64.96,7.79.44,2.15,1.18,3.81,2.22,4.96,1.04,1.16,2.55,1.86,4.53,2.13,1.98.26,4.72-.2,7.91-.89,3.29-.71,6.73-1.94,9.84-4.01,3.11-2.07,5.72-4.37,7.83-6.92s3.56-5.13,4.36-7.75c.8-2.63.65-4.94-.45-6.95-1.11-2.01-3.38-3.47-6.83-4.38-3.45-.91-8.35-.95-14.53.02-3.35.53-6.39,1.36-9.05,2.4-2.66,1.04-4.51,2.21-5.55,3.51-.35.43-.6,1.09-.77,1.97-.17.88-.29,1.82-.38,2.83-.09,1.01-.14,2.01-.16,3.01-.02,1,.01,1.78.06,2.29Z"/>
  <path class="cls-7" d="M461.94,747.03c-1.32.86-3.38,1.56-6.19,2.1-2.81.54-5.71.71-8.69.51-2.98-.2-5.74-.86-8.29-1.99-2.55-1.13-4.05-3.02-4.63-5.48-.75-3.22-1.47-7.79-1.91-13.55-.44-5.75-1.06-13.39-1.58-22.65-.37-6.6-.59-13.4-.85-20.2-.25-6.8-.12-13.62.4-20.46.53-6.84,1.58-13.6,3.18-20.29,1.6-6.68,4.07-13.34,7.54-19.63,3.58-6.51,8.32-12.02,13.91-16.44,5.59-4.41,11.63-7.65,18.11-9.72,6.47-2.07,13.15-2.96,20-2.69,6.84.27,13.42,1.7,19.71,4.26,6.28,2.56,12.04,6.29,17.26,11.15,5.22,4.86,9.47,10.95,12.83,18.07,3.67,7.77,6.36,15.94,7.9,24.43,1.54,8.49,2.45,17.04,2.56,25.47.1,7.69.53,15.47,1.45,23.14.92,7.67,1.28,15.49.67,22.95-.46,5.68-2.25,9.92-4.95,12.4-2.7,2.48-7.2,4.07-13.12,4.41-1.81.1-4.05.21-6.57.44-2.53.22-5.06.21-7.6-.05-2.54-.26-4.81-.88-6.81-1.84-2-.97-3.49-2.72-4.22-5.14-1.32-4.41-2.01-9.06-2.32-13.49-.31-4.42-.73-9.56-1.27-15.42-6.4.49-12.87,1.14-19.37,1.96-6.51.81-13.39,1.75-20.63,2.8.23,2.27.46,5.05.68,8.33.22,3.29.16,6.65-.18,10.1-.33,3.45-1.02,6.67-2.05,9.67-1.03,2.99-2.68,5.27-4.95,6.85ZM485.08,638.6c-3.46.41-6.42,2.21-8.76,5.25-2.34,3.04-4.17,6.48-5.48,10.33-1.31,3.84-2.13,7.68-2.47,11.49-.34,3.81-.33,6.73.02,8.74.13,0,.57-.15,1.32-.44,5.44-1.5,11-2.61,16.68-3.31,5.67-.7,11.41-1,17.18-.91.18-2.38-.09-5.41-.85-9.08-.75-3.67-1.89-7.19-3.42-10.54-1.53-3.35-3.5-6.19-5.92-8.53-2.42-2.33-5.24-3.38-8.3-3.01Z"/>
  <path class="cls-1" d="M595.92,746.08c-3.33.15-6.16-.45-8.49-1.82-2.33-1.37-4.26-3.17-5.78-5.4-1.53-2.23-2.72-4.81-3.57-7.72-.85-2.91-1.52-5.77-2-8.58-1.72-13.57-2.01-27.42-1.49-40.73.54-13.71,2.33-27.51,4.49-41.4.13-.48.27-1.15.4-2,.14-.85.34-1.76.6-2.73-2.22.68-4.4,1.28-6.55,1.79-2.15.51-4.2.66-6.15.45-1.95-.21-3.74-.94-5.37-2.19-1.63-1.25-3.08-3.25-4.22-5.95-1.07-2.55-1.91-5.31-2.58-8.14-.67-2.83-.88-5.73-.83-8.49.02-1.32.12-2.7.37-4.05.26-1.34.84-2.58,1.57-3.66.93-1.38,2.1-2.66,3.56-3.61,1.45-.95,2.97-1.89,4.56-2.83.66-.35,2.02-.87,4.08-1.54,2.05-.67,4.21-1.37,6.47-2.09,2.26-.72,4.45-1.37,6.59-1.97,2.13-.59,3.6-.99,4.4-1.2,5.73-1.36,11.9-2.51,18.52-3.46,6.61-.94,13.36-1.54,20.24-1.79,6.88-.25,13.82,0,20.8.72,6.98.73,13.7,2.09,20.14,4.08,6.44,1.99,12.5,4.62,18.17,7.88,5.67,3.25,10.66,7.41,14.98,12.34,5.14,5.86,8.43,11.77,9.79,17.74,1.36,5.97,1.17,11.65-.51,17.06-1.68,5.41-4.63,10.44-8.82,15.11-4.19,4.67-9.34,8.63-15.43,11.9-6.1,3.27-12.75,5.68-19.98,7.22,2.91,3.1,5.99,5.77,9.24,8,3.25,2.23,6.47,4.28,9.66,6.16,3.19,1.87,6.35,3.63,9.47,5.28,3.12,1.64,6.01,3.42,8.66,5.33,3.01,2.17,4.35,4.58,4.04,7.24-.32,2.66-1.27,5.49-2.86,8.41-1.84,3.39-4.1,6.67-6.68,9.82-2.58,3.15-5.54,6.16-8.76,8.39-2.91,2.02-6.26,2.99-9.48,2.99-3.22,0-6.71-.76-10.47-2.28-4.12-1.66-8.2-3.93-12.23-6.82-4.03-2.89-7.91-6.1-11.64-9.64-3.73-3.54-7.25-7.29-10.57-11.25-3.32-3.96-6.25-7.95-8.78-11.96.31,2.29.59,4.72.82,7.3.24,2.58.44,5.05.62,7.39.18,2.34.34,4.44.46,6.3.13,1.86.18,3.21.16,4.05-.11,3.48-.95,6.64-2.53,9.5-1.57,2.86-4.17,5.06-7.8,6.62-6.37,2.51-12.81,3.92-19.34,4.22ZM621.45,637.94c-.14,2.7-.24,5.13-.1,7.12.14,1.99.65,3.57,1.52,4.75.87,1.17,2.27,2.01,4.2,2.51,1.92.5,4.68.44,7.95.24,3.36-.21,6.92-.85,10.28-2.3,3.36-1.44,6.25-3.16,8.68-5.17,2.43-2.01,4.21-4.13,5.36-6.37,1.15-2.25,1.31-4.34.49-6.29-.82-1.95-2.88-3.57-6.17-4.84-3.29-1.27-8.13-1.97-14.37-1.91-3.39.03-6.5.37-9.27.95-2.77.58-4.76,1.39-5.96,2.42-.4.34-.74.9-1.03,1.67-.28.77-.54,1.6-.76,2.49-.22.89-.41,1.79-.56,2.68-.16.9-.23,1.6-.25,2.06Z"/>
  <path class="cls-6" d="M740.42,745.83c-1.42.59-3.57.94-6.43,1.05-2.86.11-5.76-.12-8.69-.7-2.93-.58-5.58-1.53-7.96-2.88-2.38-1.35-3.62-3.24-3.86-5.52-.32-2.98-.42-7.17-.09-12.38.33-5.21.74-12.13,1.46-20.48.51-5.95,1.2-12.07,1.86-18.19.66-6.11,1.7-12.2,3.13-18.25,1.43-6.05,3.38-11.96,5.86-17.72,2.47-5.76,5.82-11.38,10.08-16.53,4.41-5.33,9.84-9.61,15.96-12.78,6.12-3.18,12.54-5.23,19.22-6.17,6.69-.94,13.42-.81,20.16.39,6.74,1.2,13.07,3.4,18.96,6.57,5.89,3.17,11.1,7.31,15.63,12.38,4.53,5.07,7.95,11.11,10.34,17.92,2.62,7.45,4.21,15.1,4.62,22.88.41,7.78.19,15.53-.8,23.04-.91,6.86-1.5,13.85-1.6,20.81-.09,6.96-.76,13.99-2.34,20.53-1.21,4.98-3.54,8.52-6.55,10.35-3.01,1.83-7.68,2.63-13.62,2.12-1.82-.16-4.05-.37-6.59-.51-2.54-.15-5.06-.51-7.54-1.09-2.49-.58-4.66-1.44-6.52-2.57-1.86-1.14-3.11-2.91-3.51-5.16-.73-4.1-.8-8.36-.52-12.35.28-3.99.54-8.63.78-13.93-6.42-.44-12.92-.74-19.49-.9-6.57-.16-13.52-.26-20.85-.29-.07,2.06-.22,4.58-.44,7.54-.22,2.97-.73,5.97-1.52,9-.79,3.04-1.9,5.83-3.32,8.36-1.42,2.54-3.37,4.35-5.83,5.46ZM777.77,652.11c-3.48-.11-6.66,1.09-9.38,3.48-2.72,2.39-4.99,5.22-6.8,8.47-1.81,3.25-3.14,6.57-3.98,9.93-.84,3.36-1.22,5.97-1.14,7.81.13.01.58-.06,1.37-.21,5.59-.6,11.25-.83,16.98-.67,5.72.15,11.45.68,17.16,1.56.5-2.1.62-4.84.36-8.22-.26-3.38-.93-6.68-2-9.88-1.07-3.2-2.65-6.01-4.74-8.43-2.09-2.41-4.74-3.74-7.83-3.84Z"/>
  <g>
    <path class="cls-2" d="M480.82,410.8c7.23.2,20.52-.48,34.55-7.81,6.72-3.51,11.85-7.62,15.56-11.15-5.76-4.31-12.95-10.7-19.57-19.75-3.68-5.03-6.47-9.9-8.57-14.21-4.22,3.24-11.13,9.44-16.22,19.42-7.37,14.46-6.43,28.04-5.75,33.5Z"/>
    <path class="cls-2" d="M506.24,356.25c2.12-1.47,4.99-3.16,8.58-4.53,4.61-1.76,8.75-2.37,11.74-2.56,6.04,6.83,13.57,14.35,22.83,21.77,14.35,11.51,28.31,19.19,39.64,24.31.19,4.97.38,9.94.58,14.91-8.45-.22-19.59-1.61-31.67-6.32-31.52-12.3-46.87-38.43-51.69-47.58Z"/>
    <path class="cls-2" d="M554.31,370.15l11.82-13.23c3.74,2.72,9.15,7.34,13.87,14.44,5.7,8.57,7.79,16.79,8.64,21.69-6.17-3.42-12.71-7.39-19.48-11.99-5.38-3.66-10.33-7.32-14.86-10.91Z"/>
    <path class="cls-2" d="M529.35,348.17c4.17-.54,10.89-.88,18.76,1.09,6.8,1.71,11.94,4.51,15.24,6.67-3.51,4.07-7.02,8.15-10.53,12.22-4.47-3.21-9.19-6.89-14.01-11.11-3.44-3-6.59-5.98-9.47-8.88Z"/>
  </g>
  <g>
    <path class="cls-2" d="M247.24,585.01c-3.29,1.86-7.24,3.06-11.27,3.78-4.03.72-8.03.85-11.99.39-1.03-.15-1.99-.26-2.88-.35-.9-.09-1.75-.43-2.58-1.02-1.62-.9-2.98-2.64-4.09-5.22-1.11-2.57-2.06-5.42-2.85-8.53-.79-3.11-1.45-6.2-1.99-9.27-.53-3.07-1-5.58-1.31-7.48-1.76-10.53-3.63-21.31-5.88-31.85-2.31-10.79-4.09-21.95-5.65-32.75-.43-2.98-1.03-6.2-1.67-9.55-.64-3.35-1.13-6.75-1.45-10.21-.32-3.45-.39-6.9-.18-10.34.21-3.43.91-6.69,2-9.71.82-2.27,2.08-4.27,3.84-5.9,1.75-1.62,3.73-3.06,5.93-4.3,2.2-1.24,4.52-2.31,6.96-3.22,2.44-.91,4.86-1.8,7.15-2.48,3.53-1.05,7.09-.86,10.35.39,3.25,1.25,6.5,3.4,9.72,6.45,4.4,4.32,8.67,9.54,12.8,15.65,4.13,6.11,8.13,12.59,12.01,19.45,3.88,6.86,7.71,13.81,11.49,20.85,3.78,7.04,7.59,13.66,11.45,19.86,0-1.49-.17-4.06-.53-7.7-.36-3.64-.76-7.79-1.2-12.44-.44-4.65-.97-9.53-1.58-14.65-.61-5.11-1.17-10-1.68-14.64-.51-4.65-1.01-8.79-1.51-12.42-.49-3.63-.8-6.19-.92-7.68-.15-1.89-.48-4.28-.98-7.16-.5-2.88-.88-5.85-1.13-8.89-.25-3.04-.15-5.9.3-8.57.45-2.67,1.62-4.89,3.49-6.41,1.45-1.18,3.54-2.2,6.08-3.08,2.54-.88,5.2-1.59,7.97-2.13s5.49-.84,8.17-.9c2.67-.06,4.9.21,6.68.81,3.15,1.07,5.66,3.01,7.51,5.81,1.86,2.8,3.26,5.93,4.22,9.36.96,3.44,1.65,6.99,2.09,10.65.44,3.66.69,7.04.94,9.9,1.06,12.08,2.25,24.86,2.72,37.24.47,12.34.87,24.89.78,37.17-.04,6.26-.34,12.81-.73,19.49-.39,6.68-1.89,13.15-4.5,19.43-1.87,4.07-4.55,7.3-8.04,9.71-3.49,2.41-7.63,3.93-11.94,4.88-4.23.93-8.13,1.21-11.42.32-3.29-.89-6.47-3.15-9.56-6.79-6.49-7.93-12.66-16.39-18.44-25.4-5.83-9.08-11.96-18.06-18.33-26.8.8,4.33,1.66,8.85,2.56,13.58.9,4.73,1.76,9.28,2.56,13.67.8,4.39,1.49,8.27,2.07,11.65.58,3.38.94,5.88,1.1,7.52.39,4.09.36,7.81-.08,11.16-.44,3.36-2.69,6.46-6.56,8.64Z"/>
    <path class="cls-2" d="M433.34,412.72c2.06-.54,4.55-.48,7.31.51,2.75.98,5.08,2.58,6.99,4.78,3.4,4.02,6.01,9.04,7.83,15.04,1.82,6,3.17,12.29,4.06,18.86.89,6.57,1.38,13.04,1.48,19.41.1,6.37.05,11.95-.13,16.71-.37,9.4-1.65,18.73-3.8,28-2.15,9.27-5.47,17.61-9.95,25.06-4.48,7.45-10.27,13.6-17.39,18.47-7.12,4.87-15.92,7.59-26.46,8.19-8.66.49-16.25-.51-22.8-3.07-6.55-2.55-12.2-6.18-16.95-10.91-4.75-4.73-8.72-10.35-11.9-16.87-3.18-6.52-5.68-13.5-7.47-20.93-1.79-7.43-2.97-15.11-3.51-23.03-.54-7.91-.64-15.56-.31-22.91.17-3.74.39-7.66.68-11.74.28-4.08.64-8.06,1.07-11.95.43-3.88.95-7.53,1.54-10.95.6-3.42,1.22-6.4,1.87-8.96,1.79-5.78,5.12-9.55,9.96-11.28,2.61-1,5.59-1.55,8.92-1.63,3.33-.08,7.01.33,10.87,1.34,4.02,1.05,7.23,2.19,9.54,3.27,2.31,1.07,4.02,2.29,5.14,3.65,1.12,1.36,1.78,2.93,1.98,4.69.2,1.77.15,3.84-.15,6.21-1.31,10.14-2.52,19.8-3.64,28.97-1.12,9.18-1.78,18.43-1.66,27.4.09,7.15,1.22,13.19,3.09,17.85,1.87,4.66,4.1,8.08,6.69,10.27,2.59,2.19,5.38,3.18,8.38,2.99,3-.19,5.71-1.54,8.13-4.05,2.42-2.51,4.35-6.16,5.81-10.97,1.46-4.81,1.93-10.68,1.49-17.55-.29-4.53-.77-9.07-1.49-13.56-.73-4.48-1.49-9-2.29-13.55-.8-4.55-1.61-9.17-2.42-13.86-.81-4.68-1.15-9.7-1.66-14.27-.11-.99-.1-2.09.19-3.13.3-1.05.76-1.97,1.4-2.76,1.89-3.02,4.76-5.88,8.6-8.56,3.84-2.68,7.65-4.31,10.94-5.18Z"/>
    <path class="cls-2" d="M555.74,565.64c-5.29,1.8-11.56,3.15-18.71,3.87-7.16.73-14.3.67-21.45-.18-7.15-.85-13.92-2.71-20.34-5.57-6.42-2.87-11.55-7-15.38-12.43-1.41-2.15-2.22-4.4-2.43-6.77-.21-2.37.05-4.65.79-6.84.74-2.19,1.93-4.2,3.58-6.02,1.64-1.82,3.65-3.3,5.9-4.49,1.9-1.01,3.98-1.77,6.21-2.17,2.23-.4,4.45-.3,6.61.34,2.92.86,5.64,2.07,8.13,3.59,2.48,1.51,5.05,2.97,7.72,4.35,1.27.63,2.76,1.17,4.47,1.61,1.71.44,3.58.76,5.62.95,2.03.19,4.07.23,6.1.11,2.03-.12,4.04-.48,5.92-.92,2.85-.66,5.27-1.72,7.02-3.34,1.74-1.61,2.77-3.3,3.05-5.05.29-1.75-.26-3.49-1.63-5.2-1.38-1.71-3.84-3.12-7.23-3.96-2.87-.71-5.84-1.2-8.72-1.6s-5.79-.74-8.73-1.01c-5.76-.53-11.72-1.79-17.87-3.76-6.16-1.97-11.82-4.66-16.98-8.09-5.17-3.43-9.49-7.73-12.97-12.9-3.48-5.18-5.34-11.32-5.76-18.18-.53-8.78,1.05-17.23,5.11-25.03,4.06-7.79,9.62-14.52,16.68-20.13,7.06-5.61,15.14-9.9,24.21-12.84,9.07-2.94,18.33-4.11,27.61-3.41,7.16.53,14.27,2.06,21.2,4.48,6.94,2.42,13.26,5.97,18.96,10.64,2.59,2.01,4.94,4.41,7.03,7.2,2.09,2.79,3.91,5.74,5.45,8.87,1.54,3.12,2.71,6.38,3.5,9.76.8,3.39,1.27,6.77,1.4,10.1.07,1.85-.07,3.74-.41,5.64-.33,1.9-1.04,3.71-1.96,5.38-1.43,2.58-2.97,4.6-4.7,5.82-1.73,1.23-3.62,2.08-5.65,2.55-2.03.47-4.25.64-6.64.48-2.4-.16-5.05-.2-7.69-.38-1.89-.13-3.96-.3-6.03-.3-2.08,0-4.06-.16-5.93-.47-1.88-.31-3.62-.93-5.22-1.85-1.6-.92-2.95-2.48-3.91-4.63-.89-1.99-1.39-4.15-1.54-6.35-.16-2.2-.39-4.4-.57-6.51-.38-4.44-2.21-7.99-5.72-10.36-3.51-2.38-7.82-2.77-12.79-1.34-3.26.94-6.27,2.39-8.9,4.41-2.64,2.03-4.65,4.33-6.04,6.9-1.39,2.57-1.99,5.26-1.81,8.05.18,2.79,1.5,5.35,3.96,7.67,1.68,1.55,3.62,2.78,5.82,3.7,2.2.92,4.47,1.67,6.79,2.2,4.25.98,8.54,1.75,12.81,2.35,4.27.6,8.54,1.48,12.79,2.58,4.36,1.13,8.62,2.75,12.7,4.87,4.08,2.12,7.49,4.91,10.23,8.36,4.6,5.62,7.26,11.73,8,18.33.74,6.6-.06,12.99-2.36,19.2-2.3,6.21-5.99,11.79-11.06,16.76-5.07,4.97-11.21,8.59-18.22,10.98Z"/>
    <path class="cls-2" d="M688.59,536.44c-2.51,4.53-5.36,9.17-8.56,13.92-3.19,4.76-6.81,8.97-10.84,12.63-4.03,3.66-8.6,6.51-13.69,8.54-5.09,2.03-10.9,2.65-17.35,1.8-7.21-.95-13.19-3.45-17.91-7.46-4.72-4.01-8.41-9.03-11.06-15.08-2.65-6.05-4.41-12.92-5.25-20.6-.84-7.68-.98-15.69-.39-24,.59-8.31,1.75-16.66,3.52-25.03,1.77-8.37,3.89-16.31,6.38-23.81,2.48-7.5,5.26-14.29,8.31-20.36,3.06-6.07,6.08-11.02,9.06-14.85,1.84-2.19,4.51-3.74,8.03-4.62,3.51-.88,7.27-1.25,11.27-1.1,4,.15,7.97.84,11.9,2.04,3.93,1.2,7.17,2.78,9.72,4.71,1.53,1.11,2.91,2.45,4.14,4.02,1.23,1.57,2.05,3.22,2.47,4.96.93,3.97.86,7.89-.2,11.8-1.06,3.91-2.43,7.67-4.12,11.28-3.08,6.78-6.3,13.47-9.66,20.09-3.36,6.62-6.13,13.54-8.39,20.67-2.68,8.45-3.82,14.95-3.38,19.42.44,4.47,1.64,7.06,3.58,7.78,1.94.72,4.28-.39,7.04-3.32,2.75-2.92,5.17-7.53,7.27-13.81.66-2.26,1.42-5.32,2.26-9.2.84-3.87,1.79-7.86,2.85-11.96,1.06-4.1,2.2-7.97,3.43-11.62,1.23-3.65,2.56-6.47,4.01-8.2,1.22-1.46,3.37-2.62,6.26-3.45,2.89-.83,5.88-1.2,8.97-1.09,3.08.1,5.94.7,8.55,1.79,2.61,1.09,4.29,2.75,5.03,4.98.41,1.36.63,2.73.65,4.11.02,1.38.03,2.85.03,4.41.01,4.68-.02,9.44-.09,14.29-.07,4.84.63,9.37,2.09,13.57,2.9,8.75,6.14,14.63,9.73,17.68,3.6,3.05,6.98,4.03,10.17,2.94,3.19-1.08,5.86-3.8,8.02-8.17,2.16-4.36,3.17-9.73,3.18-15.98,0-4.47-.47-9.07-1.54-13.69-1.07-4.62-2.28-9.6-3.44-14.81-.85-3.85-1.92-7.74-3.29-11.52-1.37-3.78-1.85-7.58-1.36-11.33.38-2.93,1.53-5.56,3.4-7.85,1.87-2.29,4.17-4.08,6.89-5.36,2.72-1.28,5.7-2.02,8.93-2.22,3.23-.2,6.4.31,9.48,1.54,2.56,1.02,4.9,2.4,7,4.09,2.1,1.69,3.96,3.61,5.6,5.77,1.64,2.16,3.06,4.47,4.26,6.92,1.2,2.45,2.19,4.91,2.99,7.36,1.87,5.89,3.08,12.6,3.62,20.13.54,7.53.5,15.15-.11,22.88-.61,7.73-1.77,15.33-3.45,22.82-1.68,7.49-3.83,14.16-6.39,19.99-3.79,8.63-9.02,15.47-15.71,20.52-6.69,5.05-13.92,8.08-21.72,9.08-7.8,1-15.66-.18-23.63-3.59-7.98-3.4-15.1-9.3-21.43-17.75-1.73-2.27-3.2-4.68-4.41-7.22-1.21-2.54-2.04-5.15-2.47-7.83,0-.12-.08-.67-.26-1.64Z"/>
    <path class="cls-2" d="M819.23,579.6c-1.47.53-3.66.79-6.57.77-2.92-.02-5.85-.38-8.8-1.1-2.96-.71-5.62-1.79-7.98-3.25-2.36-1.46-3.55-3.41-3.7-5.7-.2-3-.14-7.19.41-12.38.55-5.19,1.24-12.1,2.3-20.41.76-5.92,1.7-12.01,2.61-18.1.91-6.09,2.21-12.12,3.9-18.11,1.69-5.98,3.89-11.81,6.61-17.47,2.72-5.65,6.31-11.14,10.8-16.12,4.65-5.15,10.26-9.22,16.53-12.17,6.26-2.95,12.78-4.77,19.52-5.48,6.74-.71,13.49-.34,20.21,1.09,6.72,1.43,13,3.84,18.8,7.21,5.8,3.37,10.91,7.68,15.3,12.91,4.39,5.23,7.64,11.39,9.85,18.31,2.41,7.56,3.8,15.3,3.99,23.14.19,7.84-.25,15.62-1.46,23.14-1.11,6.87-1.91,13.88-2.19,20.87-.29,7-1.16,14.05-2.94,20.57-1.36,4.97-3.82,8.45-6.94,10.19-3.11,1.74-7.87,2.37-13.9,1.64-1.84-.22-4.1-.52-6.68-.76-2.58-.24-5.12-.7-7.63-1.38-2.51-.68-4.69-1.62-6.55-2.84-1.86-1.21-3.07-3.04-3.4-5.32-.61-4.14-.55-8.42-.14-12.42.41-3.99.82-8.64,1.24-13.95-6.49-.68-13.06-1.24-19.71-1.66-6.65-.42-13.69-.81-21.11-1.15-.15,2.06-.38,4.57-.72,7.53-.33,2.96-.96,5.95-1.87,8.95-.91,3.01-2.14,5.75-3.68,8.23-1.54,2.48-3.58,4.22-6.12,5.21ZM860.37,487.22c-3.5-.24-6.74.85-9.57,3.14-2.83,2.29-5.21,5.04-7.16,8.23-1.94,3.19-3.4,6.46-4.37,9.79-.97,3.33-1.45,5.93-1.44,7.78.13.02.59-.03,1.39-.16,5.67-.38,11.39-.39,17.16-.02,5.77.37,11.53,1.11,17.26,2.2.57-2.09.79-4.83.64-8.24-.15-3.4-.71-6.73-1.68-9.98-.97-3.25-2.47-6.12-4.49-8.62-2.02-2.5-4.64-3.92-7.75-4.13Z"/>
  </g>
</svg>