<svg width="458" height="458" viewBox="0 0 458 458" fill="none" xmlns="http://www.w3.org/2000/svg">
<path d="M439.594 0.09375H18.4062C8.27715 0.09375 0.09375 8.27715 0.09375 18.4062V439.594C0.09375 449.723 8.27715 457.906 18.4062 457.906H439.594C449.723 457.906 457.906 449.723 457.906 439.594V18.4062C457.906 8.27715 449.723 0.09375 439.594 0.09375ZM135.892 390.207H67.9645V171.716H135.892V390.207ZM101.957 141.844C94.17 141.844 86.5579 139.535 80.0832 135.209C73.6085 130.882 68.5621 124.733 65.5822 117.539C62.6022 110.345 61.8225 102.428 63.3417 94.791C64.8608 87.1536 68.6107 80.1382 74.1169 74.632C79.6232 69.1257 86.6386 65.3759 94.276 63.8567C101.913 62.3375 109.83 63.1172 117.024 66.0972C124.218 69.0772 130.367 74.1236 134.694 80.5982C139.02 87.0729 141.329 94.685 141.329 102.472C141.272 124.218 123.646 141.844 101.957 141.844ZM390.207 390.207H322.337V283.938C322.337 258.586 321.879 226.024 287.028 226.024C251.719 226.024 246.282 253.607 246.282 282.106V390.207H178.469V171.716H243.593V201.588H244.508C253.55 184.421 275.697 166.28 308.774 166.28C377.56 166.28 390.207 211.546 390.207 270.375V390.207Z" fill="black"/>
</svg>
