<svg width="458" height="458" viewBox="0 0 458 458" fill="none" xmlns="http://www.w3.org/2000/svg">
<path d="M304.207 342.794C308.596 306.936 285.505 284.074 224.534 264.609C194.993 254.533 181.081 241.328 181.406 223.18C182.646 203.028 201.405 188.352 226.29 187.875C245.887 188.087 265.001 193.987 281.307 204.86C283.521 206.234 285.066 206.005 286.326 204.096C288.043 201.348 292.337 194.688 293.768 192.265C294.742 190.738 294.932 188.715 292.471 186.921C288.94 184.307 279.036 179.002 273.712 176.769C258.548 170.351 242.259 167.017 225.794 166.96C189.344 167.113 160.662 190.146 158.239 220.89C156.686 243.103 167.691 261.085 191.253 274.838C196.272 277.739 223.313 288.502 234.076 291.86C267.93 302.394 285.505 321.287 281.364 343.328C277.605 363.308 256.575 376.228 227.587 376.61C204.63 375.732 183.944 366.362 167.914 353.9L165.223 351.801C163.238 350.275 161.063 350.37 159.746 352.374C158.792 353.843 152.571 362.812 151.006 365.16C149.537 367.221 150.338 368.366 151.865 369.625C158.544 375.216 167.456 381.323 173.505 384.415C190.261 392.953 208.695 397.69 227.492 398.288C241.025 398.932 254.536 396.627 267.09 391.533C287.986 382.659 301.497 364.931 304.207 342.794ZM229 26.7357C189.535 26.7357 157.361 63.9482 155.853 110.512H302.127C300.581 63.9292 268.426 26.7167 229 26.7167M378.823 457.962L377.296 457.981L76.0848 457.943C55.5893 457.179 40.5325 440.577 38.4715 419.948L38.2807 416.227L24.7888 119.939C24.7003 118.748 24.8556 117.553 25.245 116.424C25.6343 115.296 26.2497 114.259 27.0535 113.377C27.8572 112.494 28.8325 111.785 29.9196 111.293C31.0068 110.8 32.1829 110.534 33.3763 110.512H128.316C130.625 49.006 174.803 0 229 0C283.196 0 327.336 49.0251 329.664 110.492H424.47C425.658 110.496 426.832 110.741 427.922 111.211C429.012 111.682 429.996 112.369 430.813 113.231C431.63 114.092 432.264 115.111 432.676 116.224C433.088 117.338 433.27 118.524 433.21 119.71L418.459 417.181L418.325 419.681C416.531 440.558 399.643 457.408 378.823 457.962Z" fill="black"/>
</svg>
