<svg width="1440" height="71" viewBox="0 0 1440 71" fill="none" xmlns="http://www.w3.org/2000/svg">
<path d="M1439.65 70.5135L1439.97 70.881H0C14.1095 53.8272 36.8188 32.0653 69.3669 23.2031C113.255 11.28 136.183 33.3334 190.522 35.1408C256.595 37.3564 259.918 6.00354 327.478 0.639596C406.537 -5.62806 416.187 36.1903 501.645 38.1289C582.556 39.9655 584.393 2.70938 668.365 0.40638C762.074 -2.17356 772.918 43.8718 864.164 39.397C943.821 35.4907 948.034 -0.191234 1025.64 0.435532C1105.37 1.07687 1105.57 38.7994 1185.46 40.5485C1269.87 42.3997 1308.74 2.49074 1373.5 23.2031C1407.82 34.1799 1425.97 54.8999 1439.65 70.5135Z" fill="#E6FDA5"/>
</svg>
